<?xml version="1.0" encoding="UTF-8" standalone="no"?>
<!DOCTYPE svg PUBLIC "-//W3C//DTD SVG 20010904//EN"
              "http://www.w3.org/TR/2001/REC-SVG-20010904/DTD/svg10.dtd">

<svg xmlns="http://www.w3.org/2000/svg"
     width="5.82667in" height="2.23667in"
     viewBox="0 0 1748 671">
  <path id="Selection"
        fill="#dbdbdb" stroke="black" stroke-width="0"
        d="M 278.00,424.00
           C 278.00,424.00 300.60,386.00 300.60,386.00
             300.60,386.00 342.60,316.00 342.60,316.00
             342.60,316.00 472.40,100.00 472.40,100.00
             472.40,100.00 513.80,31.00 513.80,31.00
             523.59,14.68 531.98,1.04 553.00,0.10
             571.79,-0.73 582.56,12.35 591.40,27.00
             591.40,27.00 633.42,97.00 633.42,97.00
             633.42,97.00 753.81,297.00 753.81,297.00
             753.81,297.00 803.80,380.00 803.80,380.00
             803.80,380.00 830.00,424.00 830.00,424.00
             830.00,424.00 750.00,424.00 750.00,424.00
             747.65,424.00 744.38,424.22 742.33,422.98
             739.37,421.19 730.35,404.98 728.01,401.00
             728.01,401.00 691.20,339.00 691.20,339.00
             688.70,334.84 681.70,321.23 677.82,319.60
             676.10,318.88 672.91,319.00 671.00,319.00
             671.00,319.00 482.00,319.00 482.00,319.00
             483.62,313.86 488.68,305.93 491.60,301.00
             491.60,301.00 507.40,274.00 507.40,274.00
             515.11,260.98 513.75,260.02 524.00,260.00
             524.00,260.00 644.00,260.00 644.00,260.00
             644.00,260.00 619.20,218.00 619.20,218.00
             619.20,218.00 575.80,145.00 575.80,145.00
             575.80,145.00 552.00,104.00 552.00,104.00
             552.00,104.00 550.00,104.00 550.00,104.00
             547.99,110.37 537.76,126.39 533.80,133.00
             533.80,133.00 503.60,184.00 503.60,184.00
             503.60,184.00 405.42,350.00 405.42,350.00
             405.42,350.00 372.40,406.00 372.40,406.00
             370.29,409.51 363.75,422.07 360.67,423.43
             359.07,424.14 355.80,424.00 354.00,424.00
             354.00,424.00 278.00,424.00 278.00,424.00 Z
           M 1196.00,424.00
           C 1196.00,424.00 1218.60,386.00 1218.60,386.00
             1218.60,386.00 1260.60,316.00 1260.60,316.00
             1260.60,316.00 1390.40,100.00 1390.40,100.00
             1390.40,100.00 1431.80,31.00 1431.80,31.00
             1441.59,14.68 1449.98,1.04 1471.00,0.10
             1489.79,-0.73 1500.56,12.35 1509.40,27.00
             1509.40,27.00 1551.42,97.00 1551.42,97.00
             1551.42,97.00 1671.81,297.00 1671.81,297.00
             1671.81,297.00 1721.80,380.00 1721.80,380.00
             1721.80,380.00 1748.00,424.00 1748.00,424.00
             1748.00,424.00 1668.00,424.00 1668.00,424.00
             1665.65,424.00 1662.38,424.22 1660.33,422.98
             1657.37,421.19 1648.35,404.98 1646.01,401.00
             1646.01,401.00 1609.20,339.00 1609.20,339.00
             1606.70,334.84 1599.70,321.23 1595.82,319.60
             1594.10,318.88 1590.91,319.00 1589.00,319.00
             1589.00,319.00 1400.00,319.00 1400.00,319.00
             1401.62,313.86 1406.68,305.93 1409.60,301.00
             1409.60,301.00 1425.40,274.00 1425.40,274.00
             1433.11,260.98 1431.75,260.02 1442.00,260.00
             1442.00,260.00 1562.00,260.00 1562.00,260.00
             1562.00,260.00 1537.20,218.00 1537.20,218.00
             1537.20,218.00 1493.80,145.00 1493.80,145.00
             1493.80,145.00 1470.00,104.00 1470.00,104.00
             1470.00,104.00 1468.00,104.00 1468.00,104.00
             1465.99,110.37 1455.76,126.39 1451.80,133.00
             1451.80,133.00 1421.60,184.00 1421.60,184.00
             1421.60,184.00 1323.42,350.00 1323.42,350.00
             1323.42,350.00 1290.40,406.00 1290.40,406.00
             1288.29,409.51 1281.75,422.07 1278.67,423.43
             1277.07,424.14 1273.80,424.00 1272.00,424.00
             1272.00,424.00 1196.00,424.00 1196.00,424.00 Z
           M 203.00,6.00
           C 203.00,6.00 276.00,6.00 276.00,6.00
             276.00,6.00 276.00,208.00 276.00,208.00
             276.00,208.00 276.00,248.00 276.00,248.00
             276.00,248.00 274.16,270.00 274.16,270.00
             270.11,307.93 256.90,347.71 228.96,374.91
             221.32,382.36 210.29,390.25 201.00,395.57
             142.10,429.29 65.65,424.00 0.00,424.00
             0.00,424.00 0.00,351.00 0.00,351.00
             0.00,351.00 75.00,351.00 75.00,351.00
             75.00,351.00 87.00,350.09 87.00,350.09
             112.96,348.30 141.17,343.89 163.00,328.56
             189.32,310.07 199.10,282.70 202.17,252.00
             202.17,252.00 203.00,243.00 203.00,243.00
             203.00,243.00 203.00,164.00 203.00,164.00
             203.00,164.00 203.00,6.00 203.00,6.00 Z
           M 875.00,6.00
           C 875.00,6.00 1230.00,6.00 1230.00,6.00
             1230.00,6.00 1230.00,79.00 1230.00,79.00
             1230.00,79.00 948.00,79.00 948.00,79.00
             948.00,79.00 948.00,424.00 948.00,424.00
             948.00,424.00 875.00,424.00 875.00,424.00
             875.00,424.00 875.00,6.00 875.00,6.00 Z
           M 1001.00,187.00
           C 1001.00,187.00 1213.00,187.00 1213.00,187.00
             1213.00,187.00 1213.00,251.00 1213.00,251.00
             1213.00,251.00 1001.00,251.00 1001.00,251.00
             1001.00,251.00 1001.00,187.00 1001.00,187.00 Z
           M 0.00,459.00
           C 0.00,459.00 1748.00,459.00 1748.00,459.00
             1748.00,459.00 1748.00,500.00 1748.00,500.00
             1748.00,500.00 0.00,500.00 0.00,500.00
             0.00,500.00 0.00,459.00 0.00,459.00 Z
           M 679.00,529.00
           C 679.00,529.00 700.00,529.00 700.00,529.00
             700.00,529.00 700.00,557.00 700.00,557.00
             700.00,557.00 701.00,574.00 701.00,574.00
             709.18,558.90 734.85,557.20 743.18,573.00
             747.59,581.38 747.00,589.91 747.00,599.00
             747.00,599.00 747.00,637.00 747.00,637.00
             747.00,637.00 726.00,637.00 726.00,637.00
             726.00,637.00 726.00,598.00 726.00,598.00
             725.99,590.47 724.94,580.63 716.00,578.45
             708.73,576.67 702.60,583.72 700.79,590.00
             699.62,594.05 700.00,602.46 700.00,607.00
             700.00,607.00 700.00,637.00 700.00,637.00
             700.00,637.00 679.00,637.00 679.00,637.00
             679.00,637.00 679.00,529.00 679.00,529.00 Z
           M 1023.00,529.65
           C 1027.88,528.64 1032.89,528.67 1036.72,532.39
             1042.23,537.74 1040.30,547.56 1032.00,550.20
             1016.99,554.96 1007.41,536.25 1023.00,529.65 Z
           M 53.00,535.00
           C 53.00,535.00 75.00,535.00 75.00,535.00
             75.00,535.00 75.00,557.00 75.00,557.00
             75.00,557.00 75.00,573.00 75.00,573.00
             75.00,594.15 79.05,625.81 55.00,636.05
             52.41,637.15 46.82,638.53 44.00,638.83
             36.34,639.65 31.32,638.38 24.00,637.00
             24.00,637.00 24.00,616.00 24.00,616.00
             28.44,618.09 32.93,620.31 38.00,619.80
             50.55,618.54 52.98,605.28 53.00,595.00
             53.00,595.00 53.00,535.00 53.00,535.00 Z
           M 336.00,637.00
           C 336.00,637.00 364.05,559.00 364.05,559.00
             364.05,559.00 369.95,543.00 369.95,543.00
             369.95,543.00 373.51,536.02 373.51,536.02
             373.51,536.02 381.00,535.00 381.00,535.00
             381.00,535.00 393.00,535.00 393.00,535.00
             393.00,535.00 398.49,536.02 398.49,536.02
             398.49,536.02 402.05,543.00 402.05,543.00
             402.05,543.00 407.95,559.00 407.95,559.00
             407.95,559.00 436.00,637.00 436.00,637.00
             436.00,637.00 419.00,637.00 419.00,637.00
             419.00,637.00 412.70,636.01 412.70,636.01
             412.70,636.01 409.67,630.00 409.67,630.00
             409.67,630.00 405.00,614.00 405.00,614.00
             405.00,614.00 376.00,614.00 376.00,614.00
             376.00,614.00 368.42,615.02 368.42,615.02
             368.42,615.02 359.30,636.01 359.30,636.01
             359.30,636.01 352.00,637.00 352.00,637.00
             352.00,637.00 336.00,637.00 336.00,637.00 Z
           M 944.00,535.00
           C 944.00,535.00 1002.00,535.00 1002.00,535.00
             1002.00,535.00 1002.00,553.00 1002.00,553.00
             1002.00,553.00 966.00,553.00 966.00,553.00
             966.00,553.00 966.00,579.00 966.00,579.00
             966.00,579.00 999.00,579.00 999.00,579.00
             999.00,579.00 999.00,597.00 999.00,597.00
             999.00,597.00 966.00,597.00 966.00,597.00
             966.00,597.00 966.00,637.00 966.00,637.00
             966.00,637.00 944.00,637.00 944.00,637.00
             944.00,637.00 944.00,535.00 944.00,535.00 Z
           M 1444.00,637.00
           C 1444.00,637.00 1472.05,559.00 1472.05,559.00
             1472.05,559.00 1477.95,543.00 1477.95,543.00
             1477.95,543.00 1481.51,536.02 1481.51,536.02
             1481.51,536.02 1487.00,535.00 1487.00,535.00
             1487.00,535.00 1499.00,535.00 1499.00,535.00
             1499.00,535.00 1506.49,536.02 1506.49,536.02
             1506.49,536.02 1510.05,543.00 1510.05,543.00
             1510.05,543.00 1515.95,559.00 1515.95,559.00
             1515.95,559.00 1544.00,637.00 1544.00,637.00
             1544.00,637.00 1527.00,637.00 1527.00,637.00
             1527.00,637.00 1520.70,636.01 1520.70,636.01
             1520.70,636.01 1517.67,630.00 1517.67,630.00
             1517.67,630.00 1513.00,614.00 1513.00,614.00
             1513.00,614.00 1484.00,614.00 1484.00,614.00
             1484.00,614.00 1476.42,615.02 1476.42,615.02
             1476.42,615.02 1467.30,636.01 1467.30,636.01
             1467.30,636.01 1460.00,637.00 1460.00,637.00
             1460.00,637.00 1444.00,637.00 1444.00,637.00 Z
           M 254.00,564.00
           C 254.00,564.00 254.57,549.42 254.57,549.42
             254.57,549.42 260.00,546.14 260.00,546.14
             260.00,546.14 275.00,542.00 275.00,542.00
             275.00,542.00 275.00,564.00 275.00,564.00
             275.00,564.00 292.00,564.00 292.00,564.00
             292.00,564.00 292.00,580.00 292.00,580.00
             292.00,580.00 275.17,580.00 275.17,580.00
             275.17,580.00 275.17,614.00 275.17,614.00
             276.23,618.33 279.39,622.22 284.00,622.68
             286.51,622.94 289.62,621.77 292.00,621.00
             292.00,621.00 292.00,637.00 292.00,637.00
             284.36,638.54 284.32,639.19 276.00,638.99
             273.07,638.91 270.81,638.68 268.00,637.78
             252.28,632.75 254.00,617.22 254.00,604.00
             254.00,604.00 254.00,580.00 254.00,580.00
             254.00,580.00 242.00,580.00 242.00,580.00
             242.00,580.00 242.00,564.00 242.00,564.00
             242.00,564.00 254.00,564.00 254.00,564.00 Z
           M 628.00,564.00
           C 628.00,564.00 628.57,549.42 628.57,549.42
             628.57,549.42 634.00,546.14 634.00,546.14
             634.00,546.14 649.00,542.00 649.00,542.00
             649.00,542.00 649.00,564.00 649.00,564.00
             649.00,564.00 666.00,564.00 666.00,564.00
             666.00,564.00 666.00,580.00 666.00,580.00
             666.00,580.00 649.17,580.00 649.17,580.00
             649.17,580.00 649.17,614.00 649.17,614.00
             650.23,618.33 653.39,622.22 658.00,622.68
             660.51,622.94 663.62,621.77 666.00,621.00
             666.00,621.00 666.00,637.00 666.00,637.00
             658.36,638.54 658.32,639.19 650.00,638.99
             647.07,638.91 644.81,638.68 642.00,637.78
             626.28,632.75 628.00,617.22 628.00,604.00
             628.00,604.00 628.00,580.00 628.00,580.00
             628.00,580.00 616.00,580.00 616.00,580.00
             616.00,580.00 616.00,564.00 616.00,564.00
             616.00,564.00 628.00,564.00 628.00,564.00 Z
           M 1062.00,564.00
           C 1062.00,564.00 1062.57,549.42 1062.57,549.42
             1062.57,549.42 1068.00,546.14 1068.00,546.14
             1068.00,546.14 1083.00,542.00 1083.00,542.00
             1083.00,542.00 1083.00,564.00 1083.00,564.00
             1083.00,564.00 1100.00,564.00 1100.00,564.00
             1100.00,564.00 1100.00,580.00 1100.00,580.00
             1100.00,580.00 1083.17,580.00 1083.17,580.00
             1083.17,580.00 1083.17,614.00 1083.17,614.00
             1084.23,618.33 1087.39,622.22 1092.00,622.68
             1094.51,622.94 1097.62,621.77 1100.00,621.00
             1100.00,621.00 1100.00,637.00 1100.00,637.00
             1092.36,638.54 1092.32,639.19 1084.00,638.99
             1081.07,638.91 1078.81,638.68 1076.00,637.78
             1060.28,632.75 1062.00,617.22 1062.00,604.00
             1062.00,604.00 1062.00,580.00 1062.00,580.00
             1062.00,580.00 1050.00,580.00 1050.00,580.00
             1050.00,580.00 1050.00,564.00 1050.00,564.00
             1050.00,564.00 1062.00,564.00 1062.00,564.00 Z
           M 386.00,552.00
           C 386.00,552.00 380.98,568.00 380.98,568.00
             380.98,568.00 372.00,597.00 372.00,597.00
             372.00,597.00 399.00,597.00 399.00,597.00
             399.00,597.00 386.00,552.00 386.00,552.00 Z
           M 1494.00,552.00
           C 1494.00,552.00 1488.98,568.00 1488.98,568.00
             1488.98,568.00 1480.00,597.00 1480.00,597.00
             1480.00,597.00 1507.00,597.00 1507.00,597.00
             1507.00,597.00 1494.00,552.00 1494.00,552.00 Z
           M 180.00,617.00
           C 188.17,620.91 196.53,625.38 206.00,623.67
             209.96,622.96 216.07,620.01 213.29,615.04
             210.65,610.30 202.77,608.76 198.00,606.94
             186.59,602.57 179.56,597.16 180.04,584.00
             180.16,580.77 180.86,577.86 182.41,575.00
             188.30,564.22 202.86,561.88 214.00,562.00
             217.52,562.04 228.88,563.00 231.01,565.72
             232.58,567.74 232.00,578.91 232.00,582.00
             226.05,579.48 221.64,577.48 215.00,577.09
             210.34,576.82 197.93,579.50 202.78,586.67
             205.33,590.45 212.84,592.52 217.00,594.05
             228.21,598.17 236.73,603.72 235.91,617.00
             234.88,633.59 218.14,638.83 204.00,639.00
             199.18,639.05 183.88,638.51 181.02,634.49
             179.97,633.01 180.04,630.74 180.00,629.00
             180.00,629.00 180.00,617.00 180.00,617.00 Z
           M 469.00,575.00
           C 476.32,559.52 502.64,556.67 511.64,572.00
             515.22,578.10 515.99,585.09 516.00,592.00
             516.00,592.00 516.00,637.00 516.00,637.00
             516.00,637.00 495.00,637.00 495.00,637.00
             495.00,637.00 495.00,599.00 495.00,599.00
             494.99,591.16 494.04,581.28 485.00,578.66
             477.34,576.45 470.75,583.22 468.79,590.00
             467.62,594.05 468.00,602.46 468.00,607.00
             468.00,607.00 468.00,637.00 468.00,637.00
             468.00,637.00 447.00,637.00 447.00,637.00
             447.00,637.00 447.00,564.00 447.00,564.00
             447.00,564.00 468.00,564.00 468.00,564.00
             468.00,564.00 469.00,575.00 469.00,575.00 Z
           M 562.00,562.43
           C 570.75,561.35 581.00,561.99 589.00,565.99
             610.04,576.51 614.42,608.33 599.67,626.00
             591.18,636.17 579.74,639.14 567.00,639.00
             556.50,638.88 545.72,635.59 538.30,627.83
             524.33,613.22 526.12,584.39 541.00,571.18
             547.65,565.28 553.54,563.82 562.00,562.43 Z
           M 825.00,618.00
           C 825.00,618.00 825.00,628.00 825.00,628.00
             824.86,636.01 819.02,636.80 812.00,637.87
             800.02,639.69 786.77,640.03 776.00,633.52
             765.44,627.14 761.14,614.84 761.00,603.00
             760.89,592.95 762.74,582.95 769.33,575.00
             781.72,560.04 807.73,556.67 821.90,571.09
             831.73,581.10 831.00,594.16 831.00,607.00
             831.00,607.00 782.00,607.00 782.00,607.00
             782.42,609.64 782.75,611.56 784.00,613.99
             789.67,625.03 804.56,625.44 815.00,622.23
             815.00,622.23 825.00,618.00 825.00,618.00 Z
           M 867.00,576.00
           C 869.22,568.49 874.07,563.47 882.00,562.30
             884.26,561.97 888.38,561.58 889.98,563.60
             891.67,565.73 891.00,578.64 891.00,582.00
             879.15,578.16 870.22,580.81 866.90,594.00
             865.25,600.58 866.00,628.32 866.00,637.00
             866.00,637.00 845.00,637.00 845.00,637.00
             845.00,637.00 845.00,564.00 845.00,564.00
             845.00,564.00 866.00,564.00 866.00,564.00
             866.00,564.00 867.00,576.00 867.00,576.00 Z
           M 1135.00,575.00
           C 1142.32,559.52 1168.64,556.67 1177.64,572.00
             1181.22,578.10 1181.99,585.09 1182.00,592.00
             1182.00,592.00 1182.00,637.00 1182.00,637.00
             1182.00,637.00 1161.00,637.00 1161.00,637.00
             1161.00,637.00 1161.00,599.00 1161.00,599.00
             1160.99,591.16 1160.04,581.28 1151.00,578.66
             1143.34,576.45 1136.75,583.22 1134.79,590.00
             1133.62,594.05 1134.00,602.46 1134.00,607.00
             1134.00,607.00 1134.00,637.00 1134.00,637.00
             1134.00,637.00 1113.00,637.00 1113.00,637.00
             1113.00,637.00 1113.00,564.00 1113.00,564.00
             1113.00,564.00 1134.00,564.00 1134.00,564.00
             1134.00,564.00 1135.00,575.00 1135.00,575.00 Z
           M 1259.00,618.00
           C 1259.00,618.00 1259.00,628.00 1259.00,628.00
             1258.86,636.01 1253.02,636.80 1246.00,637.87
             1234.02,639.69 1220.77,640.03 1210.00,633.52
             1199.44,627.14 1195.14,614.84 1195.00,603.00
             1194.89,592.95 1196.74,582.95 1203.33,575.00
             1215.72,560.04 1241.73,556.67 1255.90,571.09
             1265.73,581.10 1265.00,594.16 1265.00,607.00
             1265.00,607.00 1216.00,607.00 1216.00,607.00
             1216.42,609.64 1216.75,611.56 1218.00,613.99
             1223.67,625.03 1238.56,625.44 1249.00,622.23
             1249.00,622.23 1259.00,618.00 1259.00,618.00 Z
           M 1277.00,617.00
           C 1285.17,620.91 1293.53,625.38 1303.00,623.67
             1306.96,622.96 1313.07,620.01 1310.29,615.04
             1307.65,610.30 1299.77,608.76 1295.00,606.94
             1283.59,602.57 1276.56,597.16 1277.04,584.00
             1277.16,580.77 1277.86,577.86 1279.41,575.00
             1285.30,564.22 1299.86,561.88 1311.00,562.00
             1314.52,562.04 1325.88,563.00 1328.01,565.72
             1329.58,567.74 1329.00,578.91 1329.00,582.00
             1323.05,579.48 1318.64,577.48 1312.00,577.09
             1307.34,576.82 1294.93,579.50 1299.78,586.67
             1302.33,590.45 1309.84,592.52 1314.00,594.05
             1325.21,598.17 1333.73,603.72 1332.91,617.00
             1331.88,633.59 1315.14,638.83 1301.00,639.00
             1296.18,639.05 1280.88,638.51 1278.02,634.49
             1276.97,633.01 1277.04,630.74 1277.00,629.00
             1277.00,629.00 1277.00,617.00 1277.00,617.00 Z
           M 1344.00,617.00
           C 1352.17,620.91 1360.53,625.38 1370.00,623.67
             1373.96,622.96 1380.07,620.01 1377.29,615.04
             1374.65,610.30 1366.77,608.76 1362.00,606.94
             1350.59,602.57 1343.56,597.16 1344.04,584.00
             1344.16,580.77 1344.86,577.86 1346.41,575.00
             1352.30,564.22 1366.86,561.88 1378.00,562.00
             1381.52,562.04 1392.88,563.00 1395.01,565.72
             1396.58,567.74 1396.00,578.91 1396.00,582.00
             1390.05,579.48 1385.64,577.48 1379.00,577.09
             1374.34,576.82 1361.93,579.50 1366.78,586.67
             1369.33,590.45 1376.84,592.52 1381.00,594.05
             1392.21,598.17 1400.73,603.72 1399.91,617.00
             1398.88,633.59 1382.14,638.83 1368.00,639.00
             1363.18,639.05 1347.88,638.51 1345.02,634.49
             1343.97,633.01 1344.04,630.74 1344.00,629.00
             1344.00,629.00 1344.00,617.00 1344.00,617.00 Z
           M 1576.00,574.00
           C 1581.18,568.31 1585.22,564.47 1593.00,562.68
             1596.05,561.98 1599.87,561.86 1603.00,562.09
             1634.36,564.37 1635.32,608.45 1622.39,626.00
             1611.13,641.29 1588.43,644.62 1576.00,629.00
             1576.00,629.00 1576.00,671.00 1576.00,671.00
             1576.00,671.00 1555.00,671.00 1555.00,671.00
             1555.00,671.00 1555.00,564.00 1555.00,564.00
             1555.00,564.00 1576.00,564.00 1576.00,564.00
             1576.00,564.00 1576.00,574.00 1576.00,574.00 Z
           M 1666.00,574.00
           C 1671.18,568.31 1675.22,564.47 1683.00,562.68
             1686.05,561.98 1689.87,561.86 1693.00,562.09
             1724.36,564.37 1725.32,608.45 1712.39,626.00
             1701.13,641.29 1678.43,644.62 1666.00,629.00
             1666.00,629.00 1666.00,671.00 1666.00,671.00
             1666.00,671.00 1645.00,671.00 1645.00,671.00
             1645.00,671.00 1645.00,564.00 1645.00,564.00
             1645.00,564.00 1666.00,564.00 1666.00,564.00
             1666.00,564.00 1666.00,574.00 1666.00,574.00 Z
           M 94.00,564.00
           C 94.00,564.00 115.00,564.00 115.00,564.00
             115.00,564.00 115.00,603.00 115.00,603.00
             115.01,610.59 115.68,618.96 124.00,622.11
             131.38,624.90 138.98,618.93 141.06,612.00
             142.38,607.58 142.00,599.83 142.00,595.00
             142.00,595.00 142.00,564.00 142.00,564.00
             142.00,564.00 163.00,564.00 163.00,564.00
             163.00,564.00 163.00,637.00 163.00,637.00
             163.00,637.00 142.00,637.00 142.00,637.00
             142.00,637.00 142.00,627.00 142.00,627.00
             138.46,630.99 135.97,634.08 131.00,636.46
             118.66,642.35 101.73,638.65 96.56,625.00
             93.54,617.01 94.00,608.37 94.00,600.00
             94.00,600.00 94.00,564.00 94.00,564.00 Z
           M 1017.00,564.00
           C 1017.00,564.00 1038.00,564.00 1038.00,564.00
             1038.00,564.00 1038.00,637.00 1038.00,637.00
             1038.00,637.00 1017.00,637.00 1017.00,637.00
             1017.00,637.00 1017.00,564.00 1017.00,564.00 Z
           M 811.00,593.00
           C 810.83,589.31 810.50,585.22 808.28,582.10
             802.10,573.44 784.84,574.99 782.00,593.00
             782.00,593.00 811.00,593.00 811.00,593.00 Z
           M 1245.00,593.00
           C 1244.83,589.31 1244.50,585.22 1242.28,582.10
             1236.10,573.44 1218.84,574.99 1216.00,593.00
             1216.00,593.00 1245.00,593.00 1245.00,593.00 Z
           M 565.00,578.33
           C 561.66,579.16 559.78,579.74 557.19,582.22
             547.99,591.03 546.64,621.48 567.00,622.90
             591.13,624.59 588.90,589.37 579.79,581.57
             575.69,578.06 570.09,577.78 565.00,578.33 Z
           M 1589.00,578.39
           C 1576.85,582.31 1575.95,592.06 1576.00,603.00
             1576.01,605.42 1575.98,607.62 1576.53,610.00
             1578.57,618.84 1585.80,624.69 1595.00,622.47
             1611.19,618.56 1610.75,588.95 1602.66,581.56
             1598.74,577.97 1593.98,577.73 1589.00,578.39 Z
           M 1679.00,578.39
           C 1666.85,582.31 1665.95,592.06 1666.00,603.00
             1666.01,605.42 1665.98,607.62 1666.53,610.00
             1668.57,618.84 1675.80,624.69 1685.00,622.47
             1701.19,618.56 1700.75,588.95 1692.66,581.56
             1688.74,577.97 1683.98,577.73 1679.00,578.39 Z" />
</svg>
