<?xml version="1.0" encoding="UTF-8" standalone="no"?>
<!DOCTYPE svg PUBLIC "-//W3C//DTD SVG 20010904//EN"
              "http://www.w3.org/TR/2001/REC-SVG-20010904/DTD/svg10.dtd">

<svg xmlns="http://www.w3.org/2000/svg"
     width="5.82667in" height="1.41333in"
     viewBox="0 0 1748 424">
  <path id="Selection"
        fill="#030303" stroke="black" stroke-width="0"
        d="M 278.00,424.00
           C 278.00,424.00 300.60,386.00 300.60,386.00
             300.60,386.00 342.60,316.00 342.60,316.00
             342.60,316.00 472.40,100.00 472.40,100.00
             472.40,100.00 513.80,31.00 513.80,31.00
             523.59,14.68 531.98,1.04 553.00,0.10
             571.79,-0.73 582.56,12.35 591.40,27.00
             591.40,27.00 633.42,97.00 633.42,97.00
             633.42,97.00 753.81,297.00 753.81,297.00
             753.81,297.00 803.80,380.00 803.80,380.00
             803.80,380.00 830.00,424.00 830.00,424.00
             830.00,424.00 750.00,424.00 750.00,424.00
             747.65,424.00 744.38,424.22 742.33,422.98
             739.37,421.19 730.35,404.98 728.01,401.00
             728.01,401.00 691.20,339.00 691.20,339.00
             688.70,334.84 681.70,321.23 677.82,319.60
             676.10,318.88 672.91,319.00 671.00,319.00
             671.00,319.00 482.00,319.00 482.00,319.00
             483.62,313.86 488.68,305.93 491.60,301.00
             491.60,301.00 507.40,274.00 507.40,274.00
             515.11,260.98 513.75,260.02 524.00,260.00
             524.00,260.00 644.00,260.00 644.00,260.00
             644.00,260.00 619.20,218.00 619.20,218.00
             619.20,218.00 575.80,145.00 575.80,145.00
             575.80,145.00 552.00,104.00 552.00,104.00
             552.00,104.00 550.00,104.00 550.00,104.00
             547.99,110.37 537.76,126.39 533.80,133.00
             533.80,133.00 503.60,184.00 503.60,184.00
             503.60,184.00 405.42,350.00 405.42,350.00
             405.42,350.00 372.40,406.00 372.40,406.00
             370.29,409.51 363.75,422.07 360.67,423.43
             359.07,424.14 355.80,424.00 354.00,424.00
             354.00,424.00 278.00,424.00 278.00,424.00 Z
           M 1196.00,424.00
           C 1196.00,424.00 1218.60,386.00 1218.60,386.00
             1218.60,386.00 1260.60,316.00 1260.60,316.00
             1260.60,316.00 1390.40,100.00 1390.40,100.00
             1390.40,100.00 1431.80,31.00 1431.80,31.00
             1441.59,14.68 1449.98,1.04 1471.00,0.10
             1489.79,-0.73 1500.56,12.35 1509.40,27.00
             1509.40,27.00 1551.42,97.00 1551.42,97.00
             1551.42,97.00 1671.81,297.00 1671.81,297.00
             1671.81,297.00 1721.80,380.00 1721.80,380.00
             1721.80,380.00 1748.00,424.00 1748.00,424.00
             1748.00,424.00 1668.00,424.00 1668.00,424.00
             1665.65,424.00 1662.38,424.22 1660.33,422.98
             1657.37,421.19 1648.35,404.98 1646.01,401.00
             1646.01,401.00 1609.20,339.00 1609.20,339.00
             1606.70,334.84 1599.70,321.23 1595.82,319.60
             1594.10,318.88 1590.91,319.00 1589.00,319.00
             1589.00,319.00 1400.00,319.00 1400.00,319.00
             1401.62,313.86 1406.68,305.93 1409.60,301.00
             1409.60,301.00 1425.40,274.00 1425.40,274.00
             1433.11,260.98 1431.75,260.02 1442.00,260.00
             1442.00,260.00 1562.00,260.00 1562.00,260.00
             1562.00,260.00 1537.20,218.00 1537.20,218.00
             1537.20,218.00 1493.80,145.00 1493.80,145.00
             1493.80,145.00 1470.00,104.00 1470.00,104.00
             1470.00,104.00 1468.00,104.00 1468.00,104.00
             1465.99,110.37 1455.76,126.39 1451.80,133.00
             1451.80,133.00 1421.60,184.00 1421.60,184.00
             1421.60,184.00 1323.42,350.00 1323.42,350.00
             1323.42,350.00 1290.40,406.00 1290.40,406.00
             1288.29,409.51 1281.75,422.07 1278.67,423.43
             1277.07,424.14 1273.80,424.00 1272.00,424.00
             1272.00,424.00 1196.00,424.00 1196.00,424.00 Z
           M 203.00,6.00
           C 203.00,6.00 276.00,6.00 276.00,6.00
             276.00,6.00 276.00,208.00 276.00,208.00
             276.00,208.00 276.00,248.00 276.00,248.00
             276.00,248.00 274.16,270.00 274.16,270.00
             270.11,307.93 256.90,347.71 228.96,374.91
             221.32,382.36 210.29,390.25 201.00,395.57
             142.10,429.29 65.65,424.00 0.00,424.00
             0.00,424.00 0.00,351.00 0.00,351.00
             0.00,351.00 75.00,351.00 75.00,351.00
             75.00,351.00 87.00,350.09 87.00,350.09
             112.96,348.30 141.17,343.89 163.00,328.56
             189.32,310.07 199.10,282.70 202.17,252.00
             202.17,252.00 203.00,243.00 203.00,243.00
             203.00,243.00 203.00,164.00 203.00,164.00
             203.00,164.00 203.00,6.00 203.00,6.00 Z
           M 875.00,6.00
           C 875.00,6.00 1230.00,6.00 1230.00,6.00
             1230.00,6.00 1230.00,79.00 1230.00,79.00
             1230.00,79.00 948.00,79.00 948.00,79.00
             948.00,79.00 948.00,424.00 948.00,424.00
             948.00,424.00 875.00,424.00 875.00,424.00
             875.00,424.00 875.00,6.00 875.00,6.00 Z
           M 1001.00,187.00
           C 1001.00,187.00 1213.00,187.00 1213.00,187.00
             1213.00,187.00 1213.00,251.00 1213.00,251.00
             1213.00,251.00 1001.00,251.00 1001.00,251.00
             1001.00,251.00 1001.00,187.00 1001.00,187.00 Z" />
</svg>
